STARTFONT 2.1
FONT -FontForge-Icleargothic-Bold-R-Normal--20-140-100-100-P-105-ISO10646-1
SIZE 14 100 100
FONTBOUNDINGBOX 24 24 -2 -5
COMMENT "Generated by fontforge, http://fontforge.sourceforge.net"
COMMENT "1991 B & P Graphics, Ltd.       "
STARTPROPERTIES 40
FOUNDRY "FontForge"
FAMILY_NAME "Icleargothic"
WEIGHT_NAME "Bold"
SLANT "R"
SETWIDTH_NAME "Normal"
ADD_STYLE_NAME ""
PIXEL_SIZE 20
POINT_SIZE 140
RESOLUTION_X 100
RESOLUTION_Y 100
SPACING "P"
AVERAGE_WIDTH 105
CHARSET_REGISTRY "ISO10646"
CHARSET_ENCODING "1"
FONTNAME_REGISTRY ""
CHARSET_COLLECTIONS "ISO10646-1"
FONT_NAME "Icleargothic-ExtraBold"
FACE_NAME "Icleargothic ExtraBold"
COPYRIGHT "1991 B & P Graphics, Ltd.       "
FONT_VERSION "001.000"
FONT_ASCENT 16
FONT_DESCENT 4
UNDERLINE_POSITION -2
UNDERLINE_THICKNESS 3
X_HEIGHT 9
CAP_HEIGHT 13
RAW_ASCENT 800
RAW_DESCENT 200
ITALIC_ANGLE 6336
NORM_SPACE 6
RELATIVE_WEIGHT 70
RELATIVE_SETWIDTH 50
SUPERSCRIPT_X 0
SUPERSCRIPT_Y 10
SUPERSCRIPT_SIZE 13
SUBSCRIPT_X 0
SUBSCRIPT_Y 3
SUBSCRIPT_SIZE 13
AVG_LOWERCASE_WIDTH 105
AVG_UPPERCASE_WIDTH 121
ENDPROPERTIES
CHARS 202
STARTCHAR space
ENCODING 32
SWIDTH 290 0
DWIDTH 6 0
BBX 1 1 0 0
BITMAP
00
ENDCHAR
STARTCHAR exclam
ENCODING 33
SWIDTH 302 0
DWIDTH 6 0
BBX 7 14 1 0
BITMAP
3E
3C
3C
3C
7C
78
78
78
78
00
70
F8
F8
F0
ENDCHAR
STARTCHAR quotedbl
ENCODING 34
SWIDTH 426 0
DWIDTH 9 0
BBX 7 5 2 9
BITMAP
EE
EE
EE
EE
EE
ENDCHAR
STARTCHAR numbersign
ENCODING 35
SWIDTH 560 0
DWIDTH 11 0
BBX 11 14 1 0
BITMAP
0480
0D80
0D80
0900
7FE0
1900
1B00
1300
1200
FFC0
3200
3600
2600
2400
ENDCHAR
STARTCHAR dollar
ENCODING 36
SWIDTH 570 0
DWIDTH 11 0
BBX 11 17 1 -1
BITMAP
0380
07C0
1FE0
3FE0
7C60
7C20
7F00
7F80
7FC0
3FE0
0FE0
03E0
83C0
E7C0
FF80
FF00
1C00
ENDCHAR
STARTCHAR percent
ENCODING 37
SWIDTH 878 0
DWIDTH 18 0
BBX 17 15 1 0
BITMAP
0E0000
3F0C00
7F9800
779800
F7B000
776000
7F6000
3EC600
019F80
01BF80
037B80
067B80
067380
0C7F00
183E00
ENDCHAR
STARTCHAR ampersand
ENCODING 38
SWIDTH 743 0
DWIDTH 15 0
BBX 15 14 1 0
BITMAP
1FF8
1FF8
1F00
1F00
0F80
0F88
3FCE
7FDC
FFF8
FBF0
FBF0
FFF0
FFF8
7EFC
ENDCHAR
STARTCHAR quotesingle
ENCODING 39
SWIDTH 224 0
DWIDTH 4 0
BBX 3 5 2 9
BITMAP
E0
E0
E0
E0
E0
ENDCHAR
STARTCHAR parenleft
ENCODING 40
SWIDTH 294 0
DWIDTH 6 0
BBX 7 17 1 -2
BITMAP
0E
1E
3E
3C
78
78
78
78
F0
F0
F0
F0
F0
F0
F8
78
30
ENDCHAR
STARTCHAR parenright
ENCODING 41
SWIDTH 294 0
DWIDTH 6 0
BBX 7 17 0 -2
BITMAP
38
3C
3C
1E
1E
1E
1E
1E
1E
3C
3C
3C
38
78
F8
F0
E0
ENDCHAR
STARTCHAR asterisk
ENCODING 42
SWIDTH 435 0
DWIDTH 9 0
BBX 8 7 2 7
BITMAP
08
6B
7E
3C
F7
92
10
ENDCHAR
STARTCHAR plus
ENCODING 43
SWIDTH 606 0
DWIDTH 12 0
BBX 9 9 3 3
BITMAP
0C00
1C00
1C00
FF80
FF80
FF80
1800
1800
3800
ENDCHAR
STARTCHAR comma
ENCODING 44
SWIDTH 280 0
DWIDTH 6 0
BBX 6 6 0 -2
BITMAP
F0
F0
78
78
38
1C
ENDCHAR
STARTCHAR hyphen
ENCODING 45
SWIDTH 325 0
DWIDTH 7 0
BBX 6 3 1 4
BITMAP
FC
FC
FC
ENDCHAR
STARTCHAR period
ENCODING 46
SWIDTH 295 0
DWIDTH 6 0
BBX 5 4 1 0
BITMAP
F0
F8
F8
70
ENDCHAR
STARTCHAR slash
ENCODING 47
SWIDTH 387 0
DWIDTH 8 0
BBX 10 14 0 0
BITMAP
C000
6000
2000
3000
1800
1800
0C00
0C00
0600
0300
0300
0180
0180
00C0
ENDCHAR
STARTCHAR zero
ENCODING 48
SWIDTH 606 0
DWIDTH 12 0
BBX 12 15 1 0
BITMAP
0C00
3F80
7FC0
7BC0
7BE0
F9E0
F9F0
79F0
7DF0
7DF0
7DF0
3CF0
1FF0
1FE0
07C0
ENDCHAR
STARTCHAR one
ENCODING 49
SWIDTH 606 0
DWIDTH 12 0
BBX 9 14 2 0
BITMAP
F800
FE00
FE00
F900
7C00
7C00
7C00
7C00
7C00
7C00
3C00
3E00
FF80
FF80
ENDCHAR
STARTCHAR two
ENCODING 50
SWIDTH 605 0
DWIDTH 12 0
BBX 12 15 1 0
BITMAP
3C00
7F80
FF80
F980
F880
F800
7C00
3C00
1E00
0F00
0780
01C0
7FE0
7FF0
7FF0
ENDCHAR
STARTCHAR three
ENCODING 51
SWIDTH 606 0
DWIDTH 12 0
BBX 12 15 1 0
BITMAP
1E00
7F80
FF80
F8C0
F800
F800
7F00
1F00
7F00
7C00
F800
7C20
7FF0
3FF0
0FF0
ENDCHAR
STARTCHAR four
ENCODING 52
SWIDTH 606 0
DWIDTH 12 0
BBX 11 14 1 0
BITMAP
7800
BC00
DC00
EE00
7700
7F80
7F80
7DC0
FCE0
FFE0
FFE0
3C00
3E00
3E00
ENDCHAR
STARTCHAR five
ENCODING 53
SWIDTH 606 0
DWIDTH 12 0
BBX 12 15 1 0
BITMAP
FF80
FFC0
FFC0
01C0
01C0
1FC0
3FC0
7FE0
7C00
7C00
7C10
3E10
3FF0
0FF0
03C0
ENDCHAR
STARTCHAR six
ENCODING 54
SWIDTH 607 0
DWIDTH 12 0
BBX 11 15 2 0
BITMAP
F000
FC00
FE00
0F00
0780
07C0
7FC0
FFC0
FBE0
FBE0
FBE0
7BE0
7BE0
3FC0
1F80
ENDCHAR
STARTCHAR seven
ENCODING 55
SWIDTH 605 0
DWIDTH 12 0
BBX 11 14 2 1
BITMAP
FFC0
FFE0
7FE0
7800
3800
3800
1C00
1E00
0E00
0F00
0700
0780
07C0
03E0
ENDCHAR
STARTCHAR eight
ENCODING 56
SWIDTH 606 0
DWIDTH 12 0
BBX 12 15 1 0
BITMAP
3C00
7F00
F780
E3C0
E7C0
7FC0
3FC0
7F80
7FC0
FEE0
F870
7070
78F0
3FE0
1FC0
ENDCHAR
STARTCHAR nine
ENCODING 57
SWIDTH 606 0
DWIDTH 12 0
BBX 11 15 2 0
BITMAP
1C00
7F00
FF80
F7C0
F3C0
FBC0
FBC0
FFC0
FFC0
7F80
7C00
3C00
3E20
1FE0
07E0
ENDCHAR
STARTCHAR colon
ENCODING 58
SWIDTH 302 0
DWIDTH 6 0
BBX 6 10 1 0
BITMAP
F0
F8
F8
78
00
00
78
7C
7C
3C
ENDCHAR
STARTCHAR semicolon
ENCODING 59
SWIDTH 303 0
DWIDTH 6 0
BBX 7 12 0 -2
BITMAP
F0
F8
F8
78
00
00
7C
7C
3C
3C
1C
0E
ENDCHAR
STARTCHAR less
ENCODING 60
SWIDTH 522 0
DWIDTH 10 0
BBX 8 8 2 3
BITMAP
C0
F0
FC
3E
7F
F8
E0
80
ENDCHAR
STARTCHAR equal
ENCODING 61
SWIDTH 606 0
DWIDTH 12 0
BBX 10 7 2 4
BITMAP
FF80
7F80
7F80
0000
7FC0
7FC0
7FC0
ENDCHAR
STARTCHAR greater
ENCODING 62
SWIDTH 522 0
DWIDTH 10 0
BBX 8 9 3 3
BITMAP
01
07
1F
3E
F8
FC
3F
0F
03
ENDCHAR
STARTCHAR question
ENCODING 63
SWIDTH 501 0
DWIDTH 10 0
BBX 10 15 2 0
BITMAP
3C00
7F80
FFC0
F980
F900
FE00
7E00
3E00
0E00
0E00
0000
0F00
0F80
0F80
0780
ENDCHAR
STARTCHAR at
ENCODING 64
SWIDTH 834 0
DWIDTH 17 0
BBX 14 15 2 0
BITMAP
0700
3FC0
6070
4318
CD88
C8CC
CC4C
C464
4464
6664
264C
5DCC
6018
3030
0FE0
ENDCHAR
STARTCHAR A
ENCODING 65
SWIDTH 652 0
DWIDTH 13 0
BBX 13 14 0 0
BITMAP
3E00
3E00
3F00
7F00
7F80
7F80
7DC0
7DC0
7CE0
FFE0
FFF0
FC70
FC78
FC38
ENDCHAR
STARTCHAR B
ENCODING 66
SWIDTH 650 0
DWIDTH 13 0
BBX 13 14 1 0
BITMAP
FFE0
FFE0
FBE0
FBE0
F9F0
7FF0
3FF0
7FF0
FDF0
F9F0
7CF0
7FF8
3FF8
1FF8
ENDCHAR
STARTCHAR C
ENCODING 67
SWIDTH 602 0
DWIDTH 12 0
BBX 13 15 1 0
BITMAP
7800
FF00
FF80
43C0
43E0
01F0
01F0
01F0
01F8
01F8
01F8
21F0
3FF0
3FE0
1FC0
ENDCHAR
STARTCHAR D
ENCODING 68
SWIDTH 642 0
DWIDTH 13 0
BBX 13 14 1 0
BITMAP
3FE0
7FE0
FBE0
FBE0
F3E0
FBE0
F9F0
F9F0
F9F0
79F0
7DF0
3FF0
1FF8
07F8
ENDCHAR
STARTCHAR E
ENCODING 69
SWIDTH 555 0
DWIDTH 11 0
BBX 12 15 1 0
BITMAP
FFC0
FFC0
FFC0
07C0
07C0
07C0
3FC0
3FE0
3FE0
03E0
03E0
03E0
7FE0
7FF0
7FF0
ENDCHAR
STARTCHAR F
ENCODING 70
SWIDTH 494 0
DWIDTH 10 0
BBX 11 14 1 1
BITMAP
FF80
FF80
FF80
07C0
07C0
07C0
3FC0
3FC0
3FC0
03E0
03E0
03E0
03E0
03E0
ENDCHAR
STARTCHAR G
ENCODING 71
SWIDTH 664 0
DWIDTH 13 0
BBX 13 15 1 0
BITMAP
3800
FF00
FFC0
43E0
81E0
01F0
01F0
00F8
78F8
7CF8
7CF8
7CF8
7DF0
7FF0
3FC0
ENDCHAR
STARTCHAR H
ENCODING 72
SWIDTH 664 0
DWIDTH 13 0
BBX 14 14 1 0
BITMAP
F9F0
F9F0
F9F0
F9F0
79F0
7FF0
7FF8
7FF8
7CF8
7CF8
3CF8
3E78
3E7C
3E7C
ENDCHAR
STARTCHAR I
ENCODING 73
SWIDTH 318 0
DWIDTH 6 0
BBX 7 14 1 0
BITMAP
F8
F8
F8
F8
F8
7C
7C
7C
7C
7C
7C
3E
3E
3E
ENDCHAR
STARTCHAR J
ENCODING 74
SWIDTH 372 0
DWIDTH 7 0
BBX 9 14 0 0
BITMAP
F800
F800
F800
7800
7C00
7C00
7C00
7C00
7C00
3C00
3E00
3F80
3F80
1F80
ENDCHAR
STARTCHAR K
ENCODING 75
SWIDTH 667 0
DWIDTH 13 0
BBX 14 14 1 0
BITMAP
F1F0
79F0
3DF0
1DF0
1FF0
1FF0
1FF8
3FF8
3FF8
3EF8
3EF8
7E78
7E7C
7C7C
ENDCHAR
STARTCHAR L
ENCODING 76
SWIDTH 506 0
DWIDTH 10 0
BBX 10 14 1 0
BITMAP
3E00
1F00
1F00
1F00
1F00
1F00
1F00
0F80
0F80
0F80
0F80
FF80
FF80
FFC0
ENDCHAR
STARTCHAR M
ENCODING 77
SWIDTH 882 0
DWIDTH 18 0
BBX 18 14 1 0
BITMAP
F87E00
FC7E00
FC7E00
FEFE00
FEFE00
FFFF00
FFFF00
FBF700
F9F700
79F380
7CF380
7CF380
7C0380
7C03C0
ENDCHAR
STARTCHAR N
ENCODING 78
SWIDTH 644 0
DWIDTH 13 0
BBX 13 14 1 0
BITMAP
E1E0
E3E0
E3F0
E7F0
E7F0
77F0
7FF0
7FB0
7F38
7F38
7E38
3E38
3E38
3C38
ENDCHAR
STARTCHAR O
ENCODING 79
SWIDTH 664 0
DWIDTH 13 0
BBX 13 15 1 0
BITMAP
0E00
3FC0
7FE0
79F0
F9F0
F8F8
F8F8
F8F8
7CF8
7CF8
7CF8
3CF8
3EF8
1FF0
07E0
ENDCHAR
STARTCHAR P
ENCODING 80
SWIDTH 616 0
DWIDTH 12 0
BBX 13 14 1 0
BITMAP
7FE0
FFE0
FBE0
FBE0
F9F0
FDF0
7FF0
3FF0
01F0
01F0
00F0
00F8
00F8
00F8
ENDCHAR
STARTCHAR Q
ENCODING 81
SWIDTH 664 0
DWIDTH 13 0
BBX 13 17 1 -2
BITMAP
0E00
3FC0
7FE0
79F0
F9F0
F8F8
F8F8
F8F8
7CF8
7CF8
7CF8
3CF8
3EF8
1FF0
3FE0
3F00
1800
ENDCHAR
STARTCHAR R
ENCODING 82
SWIDTH 640 0
DWIDTH 13 0
BBX 13 14 1 0
BITMAP
7FE0
FFE0
FBE0
FBE0
F9E0
FDF0
7FF0
3FF0
3FF0
3FF0
3EF0
7EF8
7CF8
7CF8
ENDCHAR
STARTCHAR S
ENCODING 83
SWIDTH 569 0
DWIDTH 11 0
BBX 11 15 1 0
BITMAP
7800
FE00
FF00
C780
07C0
1FC0
7FC0
FF80
FF00
FE00
F800
F860
7DE0
3FE0
1FC0
ENDCHAR
STARTCHAR T
ENCODING 84
SWIDTH 505 0
DWIDTH 10 0
BBX 11 14 2 1
BITMAP
FFC0
FFC0
FFE0
1F00
1F00
1F00
1F00
0F00
0F80
0F80
0F80
0F80
0F80
0FC0
ENDCHAR
STARTCHAR U
ENCODING 85
SWIDTH 627 0
DWIDTH 13 0
BBX 12 14 2 0
BITMAP
E3E0
E3E0
E3E0
E3E0
E1E0
E1F0
61F0
71F0
71F0
71F0
71F0
3FF0
1FF0
0FC0
ENDCHAR
STARTCHAR V
ENCODING 86
SWIDTH 575 0
DWIDTH 12 0
BBX 13 14 2 0
BITMAP
E1F8
E1F0
71F0
71F0
39F0
39F0
1DF0
1FE0
0FE0
0FE0
07E0
07E0
03E0
03E0
ENDCHAR
STARTCHAR W
ENCODING 87
SWIDTH 934 0
DWIDTH 19 0
BBX 20 14 2 0
BITMAP
E3E3F0
E3F3E0
73F3E0
73F3E0
3BFBE0
3BFBE0
1BFFE0
1FFFE0
1FCFE0
0FCFE0
0FCFC0
07C7C0
07C7C0
07C7C0
ENDCHAR
STARTCHAR X
ENCODING 88
SWIDTH 676 0
DWIDTH 14 0
BBX 15 14 0 0
BITMAP
F1F0
7BF0
3BF0
1FE0
0FE0
07C0
0FC0
0FC0
1FE0
1FF0
1F78
3F38
3E1C
7E1E
ENDCHAR
STARTCHAR Y
ENCODING 89
SWIDTH 598 0
DWIDTH 12 0
BBX 13 14 2 0
BITMAP
E1F8
71F8
79F0
39F0
1FF0
1FE0
0FE0
07E0
07C0
03C0
03E0
03E0
03E0
03E0
ENDCHAR
STARTCHAR Z
ENCODING 90
SWIDTH 603 0
DWIDTH 12 0
BBX 14 15 0 0
BITMAP
FFE0
7FE0
7FF0
3E00
1F00
1F00
0F80
0FC0
07C0
03E0
03E0
01F0
3FF8
3FF8
3FFC
ENDCHAR
STARTCHAR bracketleft
ENCODING 91
SWIDTH 302 0
DWIDTH 6 0
BBX 8 18 0 -3
BITMAP
F8
7C
3C
3C
1C
1C
1C
1C
1E
1E
0E
0E
0E
0E
0F
0F
1F
1F
ENDCHAR
STARTCHAR backslash
ENCODING 92
SWIDTH 432 0
DWIDTH 9 0
BBX 5 14 3 0
BITMAP
38
38
30
70
70
70
70
70
E0
E0
E0
E0
E0
C0
ENDCHAR
STARTCHAR bracketright
ENCODING 93
SWIDTH 302 0
DWIDTH 6 0
BBX 8 17 0 -2
BITMAP
F8
F8
F0
F0
70
70
70
78
78
38
38
38
38
3C
3C
3C
1F
ENDCHAR
STARTCHAR asciicircum
ENCODING 94
SWIDTH 535 0
DWIDTH 11 0
BBX 9 8 1 3
BITMAP
0800
0C00
1C00
1E00
3E00
7F00
7780
F380
ENDCHAR
STARTCHAR underscore
ENCODING 95
SWIDTH 439 0
DWIDTH 9 0
BBX 7 1 1 -1
BITMAP
FE
ENDCHAR
STARTCHAR grave
ENCODING 96
SWIDTH 297 0
DWIDTH 6 0
BBX 3 3 3 11
BITMAP
E0
C0
80
ENDCHAR
STARTCHAR a
ENCODING 97
SWIDTH 564 0
DWIDTH 11 0
BBX 11 11 1 0
BITMAP
0400
FF80
FFC0
7BC0
79E0
79E0
7DE0
7DE0
7DE0
3FE0
3FC0
ENDCHAR
STARTCHAR b
ENCODING 98
SWIDTH 579 0
DWIDTH 12 0
BBX 11 14 1 0
BITMAP
0F80
0780
0780
0780
7FC0
FFC0
FFC0
F3C0
FBC0
FBC0
7BC0
7BE0
3FE0
1FE0
ENDCHAR
STARTCHAR c
ENCODING 99
SWIDTH 479 0
DWIDTH 10 0
BBX 10 10 1 0
BITMAP
FC00
FF00
8F00
0780
0780
07C0
07C0
4F80
FF80
3F00
ENDCHAR
STARTCHAR d
ENCODING 100
SWIDTH 577 0
DWIDTH 12 0
BBX 12 14 1 0
BITMAP
F800
F800
F800
7800
7F80
7FC0
7FC0
7DE0
7DE0
3DF0
3DF0
3DF0
3FE0
3FE0
ENDCHAR
STARTCHAR e
ENCODING 101
SWIDTH 529 0
DWIDTH 11 0
BBX 10 11 1 0
BITMAP
1000
7F00
FF80
F780
F7C0
7FC0
1FC0
07C0
67C0
7FC0
3F80
ENDCHAR
STARTCHAR f
ENCODING 102
SWIDTH 357 0
DWIDTH 7 0
BBX 9 15 1 0
BITMAP
F000
FC00
FE00
1E00
1F00
7F80
7F80
0F00
0F00
0F00
0F00
0F80
0F80
0F80
0780
ENDCHAR
STARTCHAR g
ENCODING 103
SWIDTH 542 0
DWIDTH 11 0
BBX 12 14 0 -4
BITMAP
FF00
FF80
7BC0
7BE0
79E0
7DE0
7DE0
7DE0
3FE0
3FC0
3C00
3E60
1FF0
0FF0
ENDCHAR
STARTCHAR h
ENCODING 104
SWIDTH 575 0
DWIDTH 12 0
BBX 11 14 1 0
BITMAP
0F80
0F80
0780
0780
FF80
FFC0
F7C0
F7C0
F3C0
FBC0
FBC0
FBC0
7BE0
7BE0
ENDCHAR
STARTCHAR i
ENCODING 105
SWIDTH 302 0
DWIDTH 6 0
BBX 7 15 1 0
BITMAP
60
F8
F8
F8
00
78
78
78
78
7C
7C
7C
3C
3C
3E
ENDCHAR
STARTCHAR j
ENCODING 106
SWIDTH 297 0
DWIDTH 6 0
BBX 10 19 -2 -4
BITMAP
7000
F800
F800
7800
0000
7C00
7C00
7C00
3C00
3C00
3C00
3E00
3E00
3E00
1E00
1E00
1F80
0F80
07C0
ENDCHAR
STARTCHAR k
ENCODING 107
SWIDTH 562 0
DWIDTH 11 0
BBX 11 14 1 0
BITMAP
0780
0780
0780
87C0
E7C0
FFC0
7FC0
7FC0
7FC0
7FE0
7BE0
7BE0
7BE0
F9E0
ENDCHAR
STARTCHAR l
ENCODING 108
SWIDTH 297 0
DWIDTH 6 0
BBX 6 14 1 0
BITMAP
F0
F0
F0
F8
F8
78
78
78
78
7C
7C
7C
3C
3C
ENDCHAR
STARTCHAR m
ENCODING 109
SWIDTH 846 0
DWIDTH 17 0
BBX 16 10 1 0
BITMAP
FFFE
FFFE
F7DE
F7DE
F3DE
FBDF
FBDF
FBDF
7BEF
7BEF
ENDCHAR
STARTCHAR n
ENCODING 110
SWIDTH 577 0
DWIDTH 12 0
BBX 11 10 1 0
BITMAP
FF80
FFC0
F7C0
F7C0
F7C0
FBC0
FBC0
FBC0
7BE0
7BE0
ENDCHAR
STARTCHAR o
ENCODING 111
SWIDTH 547 0
DWIDTH 11 0
BBX 11 10 1 0
BITMAP
7F00
7F80
F7C0
F3C0
FBC0
FBE0
7BE0
7BC0
3FC0
1F80
ENDCHAR
STARTCHAR p
ENCODING 112
SWIDTH 552 0
DWIDTH 11 0
BBX 12 14 0 -4
BITMAP
7FC0
FFC0
F7C0
F7C0
F3C0
FBC0
7BC0
7BE0
3FE0
1FE0
01E0
01E0
01E0
01F0
ENDCHAR
STARTCHAR q
ENCODING 113
SWIDTH 561 0
DWIDTH 11 0
BBX 11 14 1 -4
BITMAP
FF00
FF80
7BC0
7BE0
79E0
7DE0
7DE0
7DE0
3FE0
3FC0
3C00
3E00
3E00
3E00
ENDCHAR
STARTCHAR r
ENCODING 114
SWIDTH 384 0
DWIDTH 8 0
BBX 8 10 1 0
BITMAP
FE
FE
FE
1E
1F
1F
1F
0F
0F
0F
ENDCHAR
STARTCHAR s
ENCODING 115
SWIDTH 487 0
DWIDTH 10 0
BBX 10 11 0 0
BITMAP
1000
FE00
7F00
4F80
3F80
7F80
7F00
7C40
79C0
3FC0
1FC0
ENDCHAR
STARTCHAR t
ENCODING 116
SWIDTH 361 0
DWIDTH 7 0
BBX 8 13 1 0
BITMAP
7C
3C
3C
FF
FF
3E
3E
3E
1E
1E
1E
7E
7E
ENDCHAR
STARTCHAR u
ENCODING 117
SWIDTH 576 0
DWIDTH 12 0
BBX 12 10 1 0
BITMAP
FBE0
FBE0
7BE0
7BE0
7DE0
7DE0
7DE0
7DF0
3FF0
3FE0
ENDCHAR
STARTCHAR v
ENCODING 118
SWIDTH 484 0
DWIDTH 10 0
BBX 11 10 1 0
BITMAP
F3E0
73E0
7BC0
3BC0
3BC0
1FC0
1FC0
0FC0
0F80
0780
ENDCHAR
STARTCHAR w
ENCODING 119
SWIDTH 760 0
DWIDTH 15 0
BBX 16 10 1 0
BITMAP
F39F
73DF
7BDF
3BFF
3BFF
1FFE
1FFE
0FBE
0FBE
079E
ENDCHAR
STARTCHAR x
ENCODING 120
SWIDTH 525 0
DWIDTH 11 0
BBX 11 10 0 0
BITMAP
E780
7F80
3F80
1F00
1F00
3F00
3F80
7FC0
7DE0
7CE0
ENDCHAR
STARTCHAR y
ENCODING 121
SWIDTH 459 0
DWIDTH 9 0
BBX 12 14 -1 -4
BITMAP
E7C0
F7C0
77C0
77C0
3F80
3F80
1F80
1F80
0F80
0F00
0780
03F0
01F0
00F0
ENDCHAR
STARTCHAR z
ENCODING 122
SWIDTH 504 0
DWIDTH 10 0
BBX 10 10 1 0
BITMAP
FF80
FF80
7C80
3C00
3E00
1F00
0F00
6F80
7FC0
7FC0
ENDCHAR
STARTCHAR braceleft
ENCODING 123
SWIDTH 366 0
DWIDTH 7 0
BBX 7 20 1 -3
BITMAP
70
F8
E0
E0
F0
F0
F0
F0
70
F0
70
70
78
78
78
78
38
38
3E
1E
ENDCHAR
STARTCHAR bar
ENCODING 124
SWIDTH 302 0
DWIDTH 6 0
BBX 3 14 2 0
BITMAP
E0
E0
E0
E0
E0
E0
E0
E0
E0
E0
E0
E0
E0
E0
ENDCHAR
STARTCHAR braceright
ENCODING 125
SWIDTH 366 0
DWIDTH 7 0
BBX 7 20 1 -3
BITMAP
F0
F8
38
3C
3C
3C
3C
1C
1C
1E
0E
1E
1E
1E
1E
0E
0E
0E
1E
1E
ENDCHAR
STARTCHAR asciitilde
ENCODING 126
SWIDTH 515 0
DWIDTH 10 0
BBX 10 4 1 5
BITMAP
7DC0
7F80
7F80
E300
ENDCHAR
STARTCHAR exclamdown
ENCODING 161
SWIDTH 302 0
DWIDTH 6 0
BBX 7 15 1 0
BITMAP
08
3E
7E
3C
00
38
38
78
78
78
78
F8
F8
F8
F8
ENDCHAR
STARTCHAR cent
ENCODING 162
SWIDTH 490 0
DWIDTH 10 0
BBX 10 13 1 -1
BITMAP
0700
0700
1FC0
3F80
7C00
7800
F800
F800
F800
F980
7F80
3F00
1C00
ENDCHAR
STARTCHAR sterling
ENCODING 163
SWIDTH 574 0
DWIDTH 11 0
BBX 11 15 1 0
BITMAP
0780
1FE0
3FE0
3C60
7C20
7C00
7E00
3E00
7FC0
7F80
3E00
3C00
3860
FFC0
FFC0
ENDCHAR
STARTCHAR currency
ENCODING 164
SWIDTH 507 0
DWIDTH 10 0
BBX 8 8 2 3
BITMAP
DB
7E
42
C3
C2
42
FF
80
ENDCHAR
STARTCHAR yen
ENCODING 165
SWIDTH 742 0
DWIDTH 15 0
BBX 14 14 2 0
BITMAP
7E1C
7E38
3E78
3E70
3FE0
1FE0
1FC0
7FF0
0F80
FFF0
1F00
1F00
1F00
1F00
ENDCHAR
STARTCHAR section
ENCODING 167
SWIDTH 630 0
DWIDTH 13 0
BBX 13 20 1 -5
BITMAP
0380
0FE0
1FF0
3C78
3C78
3F00
1FC0
7FE0
77F0
F1F0
F0F0
FCF0
7FE0
3FC0
1FC0
C3C0
E3C0
F3C0
FF80
3E00
ENDCHAR
STARTCHAR dieresis
ENCODING 168
SWIDTH 359 0
DWIDTH 7 0
BBX 8 4 2 11
BITMAP
46
EF
EF
CE
ENDCHAR
STARTCHAR copyright
ENCODING 169
SWIDTH 890 0
DWIDTH 18 0
BBX 15 15 2 0
BITMAP
0380
0FF0
1818
20CC
63E4
4606
CC02
CC02
CC02
CC02
4E46
67C4
300C
1838
0FE0
ENDCHAR
STARTCHAR ordfeminine
ENCODING 170
SWIDTH 494 0
DWIDTH 10 0
BBX 8 11 2 4
BITMAP
18
3F
67
E3
C3
E7
7F
3B
00
FF
FE
ENDCHAR
STARTCHAR guillemotleft
ENCODING 171
SWIDTH 465 0
DWIDTH 9 0
BBX 9 9 1 1
BITMAP
1D80
3B80
3700
7E00
EE00
EE00
EE00
7600
7700
ENDCHAR
STARTCHAR logicalnot
ENCODING 172
SWIDTH 680 0
DWIDTH 14 0
BBX 11 6 2 4
BITMAP
FFE0
FFE0
FFE0
0060
0060
0060
ENDCHAR
STARTCHAR macron
ENCODING 175
SWIDTH 328 0
DWIDTH 7 0
BBX 7 2 2 11
BITMAP
FE
FC
ENDCHAR
STARTCHAR degree
ENCODING 176
SWIDTH 360 0
DWIDTH 7 0
BBX 6 6 2 9
BITMAP
30
48
84
84
CC
78
ENDCHAR
STARTCHAR acute
ENCODING 180
SWIDTH 286 0
DWIDTH 6 0
BBX 4 3 3 11
BITMAP
30
60
C0
ENDCHAR
STARTCHAR paragraph
ENCODING 182
SWIDTH 614 0
DWIDTH 12 0
BBX 12 14 2 0
BITMAP
3FF0
6000
C240
C2C0
86C0
C6C0
E6C0
7EC0
06C0
0680
0480
0580
0D80
0D80
ENDCHAR
STARTCHAR periodcentered
ENCODING 183
SWIDTH 295 0
DWIDTH 6 0
BBX 5 4 1 3
BITMAP
78
F8
F8
20
ENDCHAR
STARTCHAR cedilla
ENCODING 184
SWIDTH 194 0
DWIDTH 4 0
BBX 3 4 1 -5
BITMAP
E0
60
40
80
ENDCHAR
STARTCHAR ordmasculine
ENCODING 186
SWIDTH 490 0
DWIDTH 10 0
BBX 8 11 2 4
BITMAP
1C
3E
77
E3
C3
E7
7E
3C
00
FE
FE
ENDCHAR
STARTCHAR guillemotright
ENCODING 187
SWIDTH 465 0
DWIDTH 9 0
BBX 9 9 1 1
BITMAP
6600
7700
3700
3B80
3B80
3B80
7700
6E00
EC00
ENDCHAR
STARTCHAR questiondown
ENCODING 191
SWIDTH 501 0
DWIDTH 10 0
BBX 10 15 0 0
BITMAP
0380
07C0
0FC0
0780
0000
0700
0700
1F00
3F00
7E00
7C00
F880
7DC0
7FC0
3F00
ENDCHAR
STARTCHAR Agrave
ENCODING 192
SWIDTH 652 0
DWIDTH 13 0
BBX 13 18 0 0
BITMAP
01C0
00C0
0040
0000
03E0
03E0
07E0
07F0
0FF0
0FF0
1DF0
1DF0
39F0
3FF8
7FF8
71F8
F1F8
E1F8
ENDCHAR
STARTCHAR Aacute
ENCODING 193
SWIDTH 652 0
DWIDTH 13 0
BBX 13 18 0 0
BITMAP
0070
00C0
0080
0000
03E0
03E0
07E0
07F0
0FF0
0FF0
1DF0
1DF0
39F0
3FF8
7FF8
71F8
F1F8
E1F8
ENDCHAR
STARTCHAR Acircumflex
ENCODING 194
SWIDTH 652 0
DWIDTH 13 0
BBX 13 18 0 0
BITMAP
00E0
01B0
0330
0000
03E0
03E0
07E0
07F0
0FF0
0FF0
1DF0
1DF0
39F0
3FF8
7FF8
71F8
F1F8
E1F8
ENDCHAR
STARTCHAR Atilde
ENCODING 195
SWIDTH 652 0
DWIDTH 13 0
BBX 13 18 0 0
BITMAP
03C8
03F0
0070
0000
03E0
03E0
07E0
07F0
0FF0
0FF0
1DF0
1DF0
39F0
3FF8
7FF8
71F8
F1F8
E1F8
ENDCHAR
STARTCHAR Adieresis
ENCODING 196
SWIDTH 652 0
DWIDTH 13 0
BBX 13 17 0 0
BITMAP
0310
07F8
0778
03F0
03E0
07E0
07F0
0FF0
0FF0
1DF0
1DF0
39F0
3FF8
7FF8
71F8
F1F8
E1F8
ENDCHAR
STARTCHAR Aring
ENCODING 197
SWIDTH 652 0
DWIDTH 13 0
BBX 13 18 0 0
BITMAP
01E0
0120
0160
01C0
03E0
03E0
07E0
07F0
0FF0
0FF0
1DF0
1DF0
39F0
3FF8
7FF8
71F8
F1F8
E1F8
ENDCHAR
STARTCHAR AE
ENCODING 198
SWIDTH 954 0
DWIDTH 19 0
BBX 21 14 0 0
BITMAP
00FFF8
00FFF8
01DE00
01FE00
03BE00
073FE0
073FE0
0E3FC0
1E3C00
1FFC00
3FFC00
787FE0
707FE0
E07FE0
ENDCHAR
STARTCHAR Ccedilla
ENCODING 199
SWIDTH 602 0
DWIDTH 12 0
BBX 12 20 1 -5
BITMAP
00E0
07F0
1FF0
3E30
3C10
7C00
7C00
F800
F800
F800
F800
FC20
7FE0
3FE0
1FC0
0000
0700
0300
0200
0400
ENDCHAR
STARTCHAR Egrave
ENCODING 200
SWIDTH 555 0
DWIDTH 11 0
BBX 12 18 1 0
BITMAP
0700
0300
0100
0000
3FF0
3FF0
3C00
7C00
7C00
7FC0
7FC0
7F80
7C00
F800
F800
FFC0
FFC0
FFC0
ENDCHAR
STARTCHAR Eacute
ENCODING 201
SWIDTH 555 0
DWIDTH 11 0
BBX 12 18 1 0
BITMAP
01C0
0300
0200
0000
3FF0
3FF0
3C00
7C00
7C00
7FC0
7FC0
7F80
7C00
F800
F800
FFC0
FFC0
FFC0
ENDCHAR
STARTCHAR Ecircumflex
ENCODING 202
SWIDTH 555 0
DWIDTH 11 0
BBX 12 18 1 0
BITMAP
0380
06C0
0CC0
0000
3FF0
3FF0
3C00
7C00
7C00
7FC0
7FC0
7F80
7C00
F800
F800
FFC0
FFC0
FFC0
ENDCHAR
STARTCHAR Edieresis
ENCODING 203
SWIDTH 555 0
DWIDTH 11 0
BBX 12 19 1 0
BITMAP
0C60
1EE0
1EE0
0CC0
0000
3FF0
3FF0
3C00
7C00
7C00
7FC0
7FC0
7F80
7C00
F800
F800
FFC0
FFC0
FFC0
ENDCHAR
STARTCHAR Igrave
ENCODING 204
SWIDTH 318 0
DWIDTH 6 0
BBX 7 18 1 0
BITMAP
18
0C
0C
00
3E
3E
3C
7C
7C
7C
7C
7C
78
F8
F8
F8
F8
F8
ENDCHAR
STARTCHAR Iacute
ENCODING 205
SWIDTH 318 0
DWIDTH 6 0
BBX 7 18 1 0
BITMAP
06
0C
18
00
3E
3E
3C
7C
7C
7C
7C
7C
78
F8
F8
F8
F8
F8
ENDCHAR
STARTCHAR Icircumflex
ENCODING 206
SWIDTH 318 0
DWIDTH 6 0
BBX 8 18 1 0
BITMAP
1E
36
73
00
3E
3E
3C
7C
7C
7C
7C
7C
78
F8
F8
F8
F8
F8
ENDCHAR
STARTCHAR Idieresis
ENCODING 207
SWIDTH 318 0
DWIDTH 6 0
BBX 9 19 1 0
BITMAP
3300
7780
7780
2300
0000
3E00
3E00
3C00
7C00
7C00
7C00
7C00
7C00
7800
F800
F800
F800
F800
F800
ENDCHAR
STARTCHAR Ntilde
ENCODING 209
SWIDTH 644 0
DWIDTH 13 0
BBX 13 18 1 0
BITMAP
0790
07E0
00E0
0000
3C38
3E38
3E38
7F38
7F38
7FB8
7FF0
7FF0
67F0
E7F0
E3F0
E3F0
E1E0
E1E0
ENDCHAR
STARTCHAR Ograve
ENCODING 210
SWIDTH 664 0
DWIDTH 13 0
BBX 13 18 1 0
BITMAP
0380
0180
00C0
03C0
0FF0
1FF0
3EF8
7CF8
7CF8
7CF8
F8F8
F8F8
F8F8
F8F0
79F0
7FE0
7FC0
3F80
ENDCHAR
STARTCHAR Oacute
ENCODING 211
SWIDTH 664 0
DWIDTH 13 0
BBX 13 18 1 0
BITMAP
00E0
0180
0100
03C0
0FF0
1FF0
3EF8
7CF8
7CF8
7CF8
F8F8
F8F8
F8F8
F8F0
79F0
7FE0
7FC0
3F80
ENDCHAR
STARTCHAR Ocircumflex
ENCODING 212
SWIDTH 664 0
DWIDTH 13 0
BBX 13 18 1 0
BITMAP
01C0
0360
0660
03C0
0FF0
1FF0
3EF8
7CF8
7CF8
7CF8
F8F8
F8F8
F8F8
F8F0
79F0
7FE0
7FC0
3F80
ENDCHAR
STARTCHAR Otilde
ENCODING 213
SWIDTH 664 0
DWIDTH 13 0
BBX 13 18 1 0
BITMAP
0790
07F0
00E0
03C0
0FF0
1FF0
3EF8
7CF8
7CF8
7CF8
F8F8
F8F8
F8F8
F8F0
79F0
7FE0
7FC0
3F80
ENDCHAR
STARTCHAR Odieresis
ENCODING 214
SWIDTH 664 0
DWIDTH 13 0
BBX 14 16 1 0
BITMAP
381C
3FBC
3FF8
1FF8
3EF8
7CF8
7CF8
7CF8
F8F8
F8F8
F8F8
F8F0
79F0
7FE0
7FC0
3F80
ENDCHAR
STARTCHAR Oslash
ENCODING 216
SWIDTH 663 0
DWIDTH 13 0
BBX 13 15 1 0
BITMAP
0398
0FF0
1FF0
3EF8
7C78
7CF8
7DF8
FFF8
FAF8
FCF8
FCF0
F9F0
7FE0
7FC0
7F80
ENDCHAR
STARTCHAR Ugrave
ENCODING 217
SWIDTH 627 0
DWIDTH 13 0
BBX 13 18 1 0
BITMAP
0300
0180
0180
0000
3E38
3E38
3C38
7C30
7C70
7C70
7C70
7C70
7C70
F870
F8E0
7FE0
7FC0
3F80
ENDCHAR
STARTCHAR Uacute
ENCODING 218
SWIDTH 627 0
DWIDTH 13 0
BBX 13 18 1 0
BITMAP
00C0
0180
0300
0000
3E38
3E38
3C38
7C30
7C70
7C70
7C70
7C70
7C70
F870
F8E0
7FE0
7FC0
3F80
ENDCHAR
STARTCHAR Ucircumflex
ENCODING 219
SWIDTH 627 0
DWIDTH 13 0
BBX 13 18 1 0
BITMAP
03C0
06C0
0E60
0000
3E38
3E38
3C38
7C30
7C70
7C70
7C70
7C70
7C70
F870
F8E0
7FE0
7FC0
3F80
ENDCHAR
STARTCHAR Udieresis
ENCODING 220
SWIDTH 627 0
DWIDTH 13 0
BBX 13 16 1 0
BITMAP
0770
0778
3F78
3E38
3C38
7C30
7C70
7C70
7C70
7C70
7C70
F870
F8E0
7FE0
7FC0
3F80
ENDCHAR
STARTCHAR germandbls
ENCODING 223
SWIDTH 597 0
DWIDTH 12 0
BBX 12 15 1 0
BITMAP
0380
0FE0
3FF0
3CF0
7CF0
7FE0
7FC0
7BE0
7BE0
79E0
F9E0
F9E0
FFE0
F7C0
F780
ENDCHAR
STARTCHAR agrave
ENCODING 224
SWIDTH 564 0
DWIDTH 11 0
BBX 11 14 1 0
BITMAP
0600
0600
0300
0000
1F60
3FE0
7BE0
7BE0
FBC0
FBC0
F3C0
FFC0
FFC0
7FC0
ENDCHAR
STARTCHAR aacute
ENCODING 225
SWIDTH 564 0
DWIDTH 11 0
BBX 11 14 1 0
BITMAP
0180
0300
0600
0000
1F60
3FE0
7BE0
7BE0
FBC0
FBC0
F3C0
FFC0
FFC0
7FC0
ENDCHAR
STARTCHAR acircumflex
ENCODING 226
SWIDTH 564 0
DWIDTH 11 0
BBX 11 14 1 0
BITMAP
0700
0D80
19C0
0000
1F60
3FE0
7BE0
7BE0
FBC0
FBC0
F3C0
FFC0
FFC0
7FC0
ENDCHAR
STARTCHAR atilde
ENCODING 227
SWIDTH 564 0
DWIDTH 11 0
BBX 11 14 1 0
BITMAP
0E00
1FC0
17C0
0000
1F60
3FE0
7BE0
7BE0
FBC0
FBC0
F3C0
FFC0
FFC0
7FC0
ENDCHAR
STARTCHAR adieresis
ENCODING 228
SWIDTH 574 0
DWIDTH 11 0
BBX 11 15 1 0
BITMAP
0CC0
1DE0
1DE0
18C0
0400
3FE0
7FE0
7BC0
FBC0
F3C0
F7C0
F7C0
F7C0
FF80
7FC0
ENDCHAR
STARTCHAR aring
ENCODING 229
SWIDTH 586 0
DWIDTH 12 0
BBX 11 15 1 0
BITMAP
0300
0680
0680
0300
0400
3FE0
7FE0
7BC0
FBC0
F3C0
F7C0
F7C0
F7C0
FF80
7FC0
ENDCHAR
STARTCHAR ae
ENCODING 230
SWIDTH 813 0
DWIDTH 16 0
BBX 16 11 1 0
BITMAP
0400
3FFE
7FFE
7BEF
FBCF
F3FE
F7F0
F7C0
F7E6
FFFE
7BFC
ENDCHAR
STARTCHAR ccedilla
ENCODING 231
SWIDTH 490 0
DWIDTH 10 0
BBX 10 14 1 -4
BITMAP
1FC0
3F80
7C00
7800
F800
F800
F800
F980
7F80
3F00
0000
1C00
0400
1800
ENDCHAR
STARTCHAR egrave
ENCODING 232
SWIDTH 529 0
DWIDTH 11 0
BBX 10 14 1 0
BITMAP
0E00
0600
0200
0200
1F80
3FC0
7BC0
FBC0
FFC0
FE00
F800
F880
7F80
3F00
ENDCHAR
STARTCHAR eacute
ENCODING 233
SWIDTH 529 0
DWIDTH 11 0
BBX 10 14 1 0
BITMAP
0380
0300
0600
0200
1F80
3FC0
7BC0
FBC0
FFC0
FE00
F800
F880
7F80
3F00
ENDCHAR
STARTCHAR ecircumflex
ENCODING 234
SWIDTH 529 0
DWIDTH 11 0
BBX 10 14 1 0
BITMAP
0700
0D80
1980
0200
1F80
3FC0
7BC0
FBC0
FFC0
FE00
F800
F880
7F80
3F00
ENDCHAR
STARTCHAR edieresis
ENCODING 235
SWIDTH 529 0
DWIDTH 11 0
BBX 10 15 1 0
BITMAP
0880
3DC0
3DC0
1980
0200
1F80
3FC0
7BC0
FBC0
FFC0
FE00
F800
F880
7F80
3F00
ENDCHAR
STARTCHAR igrave
ENCODING 236
SWIDTH 306 0
DWIDTH 6 0
BBX 6 14 1 0
BITMAP
30
18
18
00
7C
7C
7C
78
78
78
F8
F8
F8
F8
ENDCHAR
STARTCHAR iacute
ENCODING 237
SWIDTH 306 0
DWIDTH 6 0
BBX 7 14 1 0
BITMAP
0E
18
10
00
7C
7C
7C
78
78
78
F8
F8
F8
F8
ENDCHAR
STARTCHAR icircumflex
ENCODING 238
SWIDTH 306 0
DWIDTH 6 0
BBX 7 14 1 0
BITMAP
1C
3C
66
00
7C
7C
7C
78
78
78
F8
F8
F8
F8
ENDCHAR
STARTCHAR idieresis
ENCODING 239
SWIDTH 306 0
DWIDTH 6 0
BBX 8 15 1 0
BITMAP
62
F7
FF
E6
00
7C
7C
7C
78
78
78
F8
F8
F8
F8
ENDCHAR
STARTCHAR ntilde
ENCODING 241
SWIDTH 577 0
DWIDTH 12 0
BBX 11 14 1 0
BITMAP
0E00
1FC0
13C0
0080
7FE0
7FE0
7FE0
7BE0
7BE0
FBE0
FBC0
FBC0
FBC0
F7C0
ENDCHAR
STARTCHAR ograve
ENCODING 242
SWIDTH 547 0
DWIDTH 11 0
BBX 11 14 1 0
BITMAP
0E00
0600
0300
0000
1F80
3FC0
7BC0
FBE0
FBE0
FBC0
F3C0
F7C0
7F80
3F00
ENDCHAR
STARTCHAR oacute
ENCODING 243
SWIDTH 547 0
DWIDTH 11 0
BBX 11 14 1 0
BITMAP
0380
0300
0600
0000
1F80
3FC0
7BC0
FBE0
FBE0
FBC0
F3C0
F7C0
7F80
3F00
ENDCHAR
STARTCHAR ocircumflex
ENCODING 244
SWIDTH 547 0
DWIDTH 11 0
BBX 11 14 1 0
BITMAP
0700
0D80
1980
0000
1F80
3FC0
7BC0
FBE0
FBE0
FBC0
F3C0
F7C0
7F80
3F00
ENDCHAR
STARTCHAR otilde
ENCODING 245
SWIDTH 547 0
DWIDTH 11 0
BBX 11 14 1 0
BITMAP
0C00
1FC0
0780
0000
1F80
3FC0
7BC0
FBE0
FBE0
FBC0
F3C0
F7C0
7F80
3F00
ENDCHAR
STARTCHAR odieresis
ENCODING 246
SWIDTH 547 0
DWIDTH 11 0
BBX 11 15 1 0
BITMAP
0CC0
1DE0
1DC0
19C0
0000
1F80
3FC0
7BC0
FBE0
FBE0
FBC0
F3C0
F7C0
7F80
3F00
ENDCHAR
STARTCHAR oslash
ENCODING 248
SWIDTH 548 0
DWIDTH 11 0
BBX 11 10 1 0
BITMAP
1FC0
3FC0
7BC0
FBE0
FFE0
FBC0
F3C0
F7C0
7F80
7F00
ENDCHAR
STARTCHAR ugrave
ENCODING 249
SWIDTH 576 0
DWIDTH 12 0
BBX 11 14 1 0
BITMAP
0600
0700
0300
0000
7DE0
7DE0
7BE0
7BE0
7BE0
FBC0
FBC0
FFC0
FFC0
7FC0
ENDCHAR
STARTCHAR uacute
ENCODING 250
SWIDTH 576 0
DWIDTH 12 0
BBX 11 14 1 0
BITMAP
0180
0300
0600
0000
7DE0
7DE0
7BE0
7BE0
7BE0
FBC0
FBC0
FFC0
FFC0
7FC0
ENDCHAR
STARTCHAR ucircumflex
ENCODING 251
SWIDTH 576 0
DWIDTH 12 0
BBX 11 14 1 0
BITMAP
0700
0D80
1CC0
0000
7DE0
7DE0
7BE0
7BE0
7BE0
FBC0
FBC0
FFC0
FFC0
7FC0
ENDCHAR
STARTCHAR udieresis
ENCODING 252
SWIDTH 577 0
DWIDTH 12 0
BBX 11 15 1 0
BITMAP
0CC0
1DE0
1DE0
18C0
0000
7DE0
7DE0
7BE0
7BE0
7BE0
FBE0
FBC0
FFC0
FFC0
7FC0
ENDCHAR
STARTCHAR ydieresis
ENCODING 255
SWIDTH 459 0
DWIDTH 9 0
BBX 12 19 -1 -4
BITMAP
0460
0EF0
0EF0
0CE0
0000
3E70
3EF0
1EE0
1EE0
1FC0
1FC0
1F80
1F80
0F00
0F00
0E00
FC00
F800
F000
ENDCHAR
STARTCHAR dotlessi
ENCODING 305
SWIDTH 306 0
DWIDTH 6 0
BBX 6 10 1 0
BITMAP
7C
7C
7C
78
78
78
F8
F8
F8
F8
ENDCHAR
STARTCHAR OE
ENCODING 338
SWIDTH 915 0
DWIDTH 18 0
BBX 19 15 1 0
BITMAP
03C000
0FFFE0
1FFFE0
3EFC00
7C7800
7CF800
7CFF80
F8FF80
F8FF00
F8F800
F8F800
F9F000
7FFF80
7FFF80
1FFF80
ENDCHAR
STARTCHAR oe
ENCODING 339
SWIDTH 819 0
DWIDTH 16 0
BBX 16 10 1 0
BITMAP
1FFE
3FFF
7BEF
FBEF
FBFE
FBF8
F3E0
F7E6
7FFE
3FFC
ENDCHAR
STARTCHAR Ydieresis
ENCODING 376
SWIDTH 598 0
DWIDTH 12 0
BBX 13 19 2 0
BITMAP
0CC0
1DE0
1DE0
18C0
0000
F878
F870
FCE0
7DE0
7DC0
7F80
3F00
3F00
3E00
3E00
3E00
3E00
3E00
7C00
ENDCHAR
STARTCHAR florin
ENCODING 402
SWIDTH 519 0
DWIDTH 10 0
BBX 14 19 -2 -4
BITMAP
0008
007C
00FC
01E0
01E0
07F8
0FF0
03C0
07C0
07C0
0780
0780
0F80
0F00
0F00
1F00
1F00
FE00
FC00
ENDCHAR
STARTCHAR circumflex
ENCODING 710
SWIDTH 360 0
DWIDTH 7 0
BBX 7 3 2 11
BITMAP
38
6C
CE
ENDCHAR
STARTCHAR caron
ENCODING 711
SWIDTH 361 0
DWIDTH 7 0
BBX 6 3 3 11
BITMAP
CC
D8
70
ENDCHAR
STARTCHAR breve
ENCODING 728
SWIDTH 291 0
DWIDTH 6 0
BBX 6 3 2 11
BITMAP
CC
F8
70
ENDCHAR
STARTCHAR ring
ENCODING 730
SWIDTH 209 0
DWIDTH 4 0
BBX 4 4 2 11
BITMAP
60
D0
D0
60
ENDCHAR
STARTCHAR tilde
ENCODING 732
SWIDTH 338 0
DWIDTH 7 0
BBX 7 3 2 11
BITMAP
60
FE
3C
ENDCHAR
STARTCHAR endash
ENCODING 8211
SWIDTH 606 0
DWIDTH 12 0
BBX 9 3 3 6
BITMAP
FF80
FF80
FF00
ENDCHAR
STARTCHAR emdash
ENCODING 8212
SWIDTH 508 0
DWIDTH 10 0
BBX 10 3 1 4
BITMAP
FFC0
FFC0
FFC0
ENDCHAR
STARTCHAR quoteleft
ENCODING 8216
SWIDTH 280 0
DWIDTH 6 0
BBX 5 5 2 9
BITMAP
38
38
78
70
F0
ENDCHAR
STARTCHAR quoteright
ENCODING 8217
SWIDTH 281 0
DWIDTH 6 0
BBX 5 5 2 9
BITMAP
78
78
70
F0
E0
ENDCHAR
STARTCHAR quotesinglbase
ENCODING 8218
SWIDTH 280 0
DWIDTH 6 0
BBX 6 6 0 -2
BITMAP
7C
78
78
70
F0
E0
ENDCHAR
STARTCHAR quotedblleft
ENCODING 8220
SWIDTH 518 0
DWIDTH 10 0
BBX 10 5 2 9
BITMAP
39C0
3BC0
7B80
7780
F780
ENDCHAR
STARTCHAR quotedblright
ENCODING 8221
SWIDTH 519 0
DWIDTH 10 0
BBX 10 5 2 9
BITMAP
7BC0
7B80
7780
F700
E700
ENDCHAR
STARTCHAR quotedblbase
ENCODING 8222
SWIDTH 518 0
DWIDTH 10 0
BBX 11 6 0 -2
BITMAP
7FE0
7BC0
7BC0
7380
F700
E700
ENDCHAR
STARTCHAR dagger
ENCODING 8224
SWIDTH 690 0
DWIDTH 14 0
BBX 14 20 1 -5
BITMAP
0340
03C0
03C0
0380
0380
7FFC
7FFC
7FFC
FFF8
0700
0700
0700
0700
0700
0F00
0E00
0E00
0E00
0E00
1E00
ENDCHAR
STARTCHAR daggerdbl
ENCODING 8225
SWIDTH 697 0
DWIDTH 14 0
BBX 14 19 1 -4
BITMAP
01C0
03C0
03C0
0380
0380
7FFC
7FFC
7FFC
0780
0700
0700
FFF8
FFF8
FFF8
FFF8
0F00
0E00
0E00
0E00
ENDCHAR
STARTCHAR bullet
ENCODING 8226
SWIDTH 360 0
DWIDTH 7 0
BBX 5 6 2 4
BITMAP
70
F8
F8
F8
F8
60
ENDCHAR
STARTCHAR ellipsis
ENCODING 8230
SWIDTH 864 0
DWIDTH 17 0
BBX 16 4 1 0
BITMAP
738E
F3CF
F3DF
F3CE
ENDCHAR
STARTCHAR perthousand
ENCODING 8240
SWIDTH 1078 0
DWIDTH 22 0
BBX 20 15 2 0
BITMAP
380000
7C6000
FCC000
FC8000
DD8000
DD0000
FB0000
726040
06F1F0
0DFBF0
0BBBF0
1BBB70
13BB70
33F3E0
21E3E0
ENDCHAR
STARTCHAR guilsinglleft
ENCODING 8249
SWIDTH 278 0
DWIDTH 6 0
BBX 6 9 1 1
BITMAP
1C
38
30
70
E0
E0
E0
70
70
ENDCHAR
STARTCHAR guilsinglright
ENCODING 8250
SWIDTH 278 0
DWIDTH 6 0
BBX 5 9 1 1
BITMAP
60
70
30
38
38
38
70
60
E0
ENDCHAR
STARTCHAR fraction
ENCODING 8260
SWIDTH 185 0
DWIDTH 4 0
BBX 8 17 -1 -1
BITMAP
03
03
06
06
04
0C
0C
18
18
10
30
30
60
60
40
C0
C0
ENDCHAR
STARTCHAR trademark
ENCODING 8482
SWIDTH 710 0
DWIDTH 14 0
BBX 12 7 2 7
BITMAP
FB30
2730
2570
6550
6DD0
6D90
6890
ENDCHAR
STARTCHAR fi
ENCODING 64257
SWIDTH 606 0
DWIDTH 12 0
BBX 9 8 3 4
BITMAP
2100
6380
7700
7E00
3C00
7E00
FF00
E600
ENDCHAR
STARTCHAR fl
ENCODING 64258
SWIDTH 481 0
DWIDTH 10 0
BBX 10 14 0 0
BITMAP
0780
3F80
3F80
0F80
0F80
0F80
0F00
1F00
1F00
1F00
1F00
1F00
FFC0
FFC0
ENDCHAR
STARTCHAR .notdef
ENCODING -1
SWIDTH 290 0
DWIDTH 6 0
BBX 1 1 0 0
BITMAP
00
ENDCHAR
STARTCHAR register
ENCODING -1
SWIDTH 890 0
DWIDTH 18 0
BBX 15 15 2 0
BITMAP
0380
0FF0
1818
238C
63E4
4666
C662
C7C2
C782
C682
46C6
64E4
300C
1838
0FE0
ENDCHAR
ENDFONT
